<?xml version="1.0" encoding="utf-8"?>
<!-- Generator: Adobe Illustrator 20.0.0, SVG Export Plug-In . SVG Version: 6.00 Build 0)  -->
<svg version="1.1" id="Calque_1" xmlns="http://www.w3.org/2000/svg" xmlns:xlink="http://www.w3.org/1999/xlink" x="0px" y="0px"
	 width="182.4px" height="71.1px" viewBox="0 0 182.4 71.1" style="enable-background:new 0 0 182.4 71.1;" xml:space="preserve">
<style type="text/css">
	.st0{fill:#FFFFFF;}
</style>
<g>
	<path class="st0" d="M181.1,0H0v7.3c0,0,20.4,0,22.6,0c0,2.4,0,49.5,0,49.5h7.8c0,0,0-47.1,0-49.5c2.5,0,152,0,152,0V0H181.1z"/>
	<polygon class="st0" points="180.7,63.2 1.6,63.2 1.6,71.1 182,71.1 182,63.2 	"/>
	<path class="st0" d="M101.1,13h-6.9c0,0,0,15.1,0,17.3c-2.3,0-34.2,0-36.5,0c0-2.2,0-17.3,0-17.3h-8.2v44.1h8.2c0,0,0-16.5,0-18.7
		c2.3,0,34.2,0,36.5,0c0,2.2,0,18.7,0,18.7h8.2V13H101.1z"/>
	<path class="st0" d="M165.5,12.2h-7.9c0,0-15.3,14.5-16.8,16c-1.6-1.5-16.8-16-16.8-16h-11c0,0,20.6,19.6,22.3,21.2
		c-1.8,1.7-26.1,24.8-26.1,24.8h11c0,0,19-18.1,20.6-19.6c1.6,1.5,20.6,19.6,20.6,19.6h11c0,0-24.3-23.1-26.1-24.8
		c1.7-1.7,22.3-21.2,22.3-21.2H165.5z"/>
</g>
</svg>
